<svg xmlns="http://www.w3.org/2000/svg" viewBox="0 0 384.36 81.36"><defs><style>.cls-1,.cls-2{fill:none;stroke:#1d1d1b;stroke-miterlimit:10;}.cls-1{stroke-width:7px;}.cls-2{stroke-width:5px;}.cls-3{fill:#1d1d1b;}</style></defs><g id="Camada_2" data-name="Camada 2"><g id="Camada_1-2" data-name="Camada 1"><path class="cls-1" d="M30.45,5.68,5.53,29.59a5.84,5.84,0,0,0-1.86,5.69V65.9a6,6,0,0,0,2.08,5.89l4,3.54A5.58,5.58,0,0,0,15,76.8h7.16a5.43,5.43,0,0,0,5-1.25L30.27,73a7.88,7.88,0,0,1,10.3.29l3,2.74a6.49,6.49,0,0,0,5.32,1.78H55.2a6.81,6.81,0,0,0,6.06-2.56L65.62,70a9.7,9.7,0,0,0,2-5V36.85a9.43,9.43,0,0,0-2.33-5.36L41.68,6A7.92,7.92,0,0,0,30.45,5.68Z"/><path class="cls-2" d="M50.46,55.31A14.92,14.92,0,0,1,35.54,70.23c-19.79-.79-19.78-29.06,0-29.84A14.92,14.92,0,0,1,50.46,55.31Z"/><path class="cls-3" d="M85.71,25.59V22.31H96.25v4.33h-.91Zm12,38.77,9.63,1V68.7H85.71V65.41l9.63-1ZM91.71,44c0-7.2,0-14.47-.21-21.67H101c-.21,7.06-.21,14.33-.21,21.67v2.48c0,7.76,0,15,.21,22.24H91.5c.21-7.06.21-14.34.21-21.68Zm23-21.67L118.79,26H96.25V22.31h24.94l.49,12.24h-4.9Zm-2.44,24.41h-16V43h16ZM110,44l1-7h3.61v16.5h-3.61l-1-7.4Z"/><path class="cls-3" d="M135.41,49.79c2.91-.95,7.59-2.23,11-2.94v2.72a63.13,63.13,0,0,0-9.24,2.8c-4.71,1.88-6.1,4.39-6.1,7.05,0,3.61,2.14,5.15,4.92,5.15,1.88,0,3.13-.73,6.43-3.1l2.12-1.59.85,1.24-2.49,2.62c-3.79,3.88-6.06,5.94-10.74,5.94-5.26,0-9.27-3.06-9.27-8.84C122.88,56.39,125.32,53.06,135.41,49.79Zm6.65,12.83V45.88c0-6.52-1.57-8.27-6.11-8.27a19.78,19.78,0,0,0-6.42,1.13l3.82-2.45-1.15,5.42c-.4,3.37-2.06,4.87-4.36,4.87a3.61,3.61,0,0,1-3.94-3.16c.84-5.57,6.24-9.19,14.8-9.19,8.1,0,11.63,3.54,11.63,12.64V62.13c0,2.25.77,3.14,2.07,3.14,1,0,1.62-.5,2.42-1.54l1.63,1.38c-1.68,3.25-3.88,4.44-7.2,4.44C144.94,69.55,142.37,66.91,142.06,62.62Z"/><path class="cls-3" d="M165.16,64.78l5.76,1.06V68.7H157.27V65.84l6-1.06Zm-.23-25.54-7.3-1.13V35.22h17.54v2.89l-6.69,1.13ZM159.1,68.7l14.81-19.3L176.54,51,163.88,68.7Zm10-33.48,9,13.6L191.33,68.7h-9.75L172.1,54.34,159.69,35.22Zm22.14,0-14.4,18.49-2.41-1.82,12-16.67Zm-5.5,29.22,7.75,1.4V68.7H175.05V65.84l8.46-1.4ZM185,39.17l-5.24-1.06V35.22h12.66v2.89l-5.54,1.06Z"/><path class="cls-3" d="M196.91,25.59V22.31h10.53v4.33h-.9Zm10.53,38.77V68.7H196.91V65.41l9.63-1ZM202.91,44c0-7.2,0-14.47-.21-21.67h9.48C212,29.37,212,36.64,212,44v2.48c0,7.76,0,15,.21,22.24H202.7c.21-7.06.21-14.34.21-21.68Zm22.72-21.67L229.75,26H207.44V22.31h24.71l.49,12.24h-4.89ZM223,46.72h-15.6V43H223Zm11,9.74-.49,12.24H207.44V65h23.71L227,68.7l2.12-12.24ZM220.85,44l1.05-7h3.61v15.8H221.9l-1.05-7.4Z"/><path class="cls-3" d="M239,66.74l0-8.11h4.68l1.73,8.82L241.64,66V63.34a14.55,14.55,0,0,0,8.68,2.84c4.69,0,7.05-1.73,7.05-4.74,0-2.6-1.69-4.09-6.19-5.57l-3.5-1.14c-5.26-1.73-8.46-4.89-8.46-9.91,0-5.75,4.72-10.59,13.33-10.59A20.56,20.56,0,0,1,263,37.07l-.39,7.37H258l-1.71-7.86L259.51,38v2.2a11.26,11.26,0,0,0-7.13-2.45c-3.72,0-5.88,1.63-5.88,4.36,0,2.53,1.39,3.8,6.17,5.39l2.76.87c6.82,2.28,9.48,5.75,9.48,10.52,0,6.31-5.27,10.8-14.68,10.8A22.26,22.26,0,0,1,239,66.74Z"/><path class="cls-3" d="M285.18,65.06a7.12,7.12,0,0,0,4.27-1.75l1.66,1.78c-1.8,2.91-4.88,4.59-9.19,4.59-5.6,0-9-2.67-9-8.82,0-2.07.06-3.74.06-6.47v-15h-5.18V35.85l8.47-1.1-3.41,2.57,3.28-11.77h5.62L281.44,38V60.09C281.44,63.55,283,65.06,285.18,65.06Zm4.73-29.84v4.22H277.26V35.22Z"/><path class="cls-3" d="M306.18,49.79c2.92-.95,7.6-2.23,11-2.94v2.72a63.68,63.68,0,0,0-9.25,2.8c-4.7,1.88-6.09,4.39-6.09,7.05,0,3.61,2.14,5.15,4.92,5.15,1.88,0,3.13-.73,6.43-3.1l2.12-1.59.85,1.24-2.49,2.62c-3.79,3.88-6.06,5.94-10.74,5.94-5.26,0-9.27-3.06-9.27-8.84C293.66,56.39,296.09,53.06,306.18,49.79Zm6.66,12.83V45.88c0-6.52-1.57-8.27-6.11-8.27a19.74,19.74,0,0,0-6.42,1.13l3.82-2.45L303,41.71c-.4,3.37-2.06,4.87-4.36,4.87a3.62,3.62,0,0,1-3.95-3.16c.85-5.57,6.25-9.19,14.81-9.19,8.1,0,11.62,3.54,11.62,12.64V62.13c0,2.25.78,3.14,2.08,3.14,1,0,1.62-.5,2.42-1.54l1.63,1.38c-1.68,3.25-3.88,4.44-7.21,4.44C315.72,69.55,313.15,66.91,312.84,62.62Z"/><path class="cls-3" d="M345.39,65.06a7.12,7.12,0,0,0,4.27-1.75l1.66,1.78c-1.8,2.91-4.87,4.59-9.19,4.59-5.6,0-9-2.67-9-8.82,0-2.07.07-3.74.07-6.47v-15h-5.18V35.85l8.46-1.1-3.41,2.57,3.28-11.77H342L341.66,38V60.09C341.66,63.55,343.17,65.06,345.39,65.06Zm4.74-29.84v4.22H337.47V35.22Z"/><path class="cls-3" d="M384.36,48.31a14.75,14.75,0,0,1-.44,3.84h-26.6V48.82h14.85c3.36,0,4.18-1.42,4.18-4,0-4.3-2.77-7.24-6.22-7.24-3.68,0-7.58,3.47-7.58,13.52,0,8.7,4.35,13,10.45,13,4.11,0,6.81-1.79,9.12-4.35l2,1.78c-2.7,5.22-7.46,8.13-14,8.13-9.78,0-16.45-6.58-16.45-17.54,0-11.19,8.14-17.91,17-17.91C378.88,34.23,384.36,39.85,384.36,48.31Z"/></g></g></svg>