<svg xmlns="http://www.w3.org/2000/svg" viewBox="0 0 117.76 29.95"><defs><style>.cls-1,.cls-2{fill:#03342a;}.cls-2{font-size:25px;font-family:MyriadPro-Regular, Myriad Pro;}</style></defs><g id="Camada_2" data-name="Camada 2"><g id="Camada_1-2" data-name="Camada 1"><path class="cls-1" d="M7.54,0A4.54,4.54,0,0,0,3,4.52v3.3a4.55,4.55,0,0,0-3,4.25V28.66H3v-3H42.23v3h3V12.07a4.55,4.55,0,0,0-3-4.25V4.52A4.54,4.54,0,0,0,37.71,0Zm0,3H37.71a1.51,1.51,0,0,1,1.51,1.5v3.3a4.55,4.55,0,0,0-3,4.25v3H9.05v-3A4.55,4.55,0,0,0,6,7.82V4.52A1.5,1.5,0,0,1,7.54,3Zm-3,7.54A1.5,1.5,0,0,1,6,12.07v6H39.22v-6a1.51,1.51,0,1,1,3,0V22.62H3V12.07A1.5,1.5,0,0,1,4.52,10.56Z"/><text class="cls-2" transform="translate(53.56 23.7)">Ubbio</text></g></g></svg>