<svg xmlns="http://www.w3.org/2000/svg" viewBox="0 0 230.26 40.61"><defs><style>.cls-1,.cls-2{fill:#270c0d;}.cls-2{stroke:#270c0d;stroke-miterlimit:10;}</style></defs><g id="Camada_2" data-name="Camada 2"><g id="Camada_1-2" data-name="Camada 1"><path class="cls-1" d="M58.24,8.54l8.44,29a4.64,4.64,0,0,1,.12.47,3.44,3.44,0,0,1,0,.42A2.07,2.07,0,0,1,66.18,40a2.16,2.16,0,0,1-2.93.13,2.57,2.57,0,0,1-.84-1.34l-1.18-4A2.31,2.31,0,0,0,59,33.08H52.69a2.3,2.3,0,0,0-2.21,1.65l-1.2,4a2.91,2.91,0,0,1-.88,1.42,2.13,2.13,0,0,1-1.42.46,2.19,2.19,0,0,1-2.13-2.14c0-.26,0-.45,0-.58a3.61,3.61,0,0,1,.08-.38l8.44-29a4.5,4.5,0,0,1,1-2A2.09,2.09,0,0,1,55.84,6a2,2,0,0,1,1.46.52A4.43,4.43,0,0,1,58.24,8.54ZM53.61,23.87l-.52,1.77a2.31,2.31,0,0,0,2.22,3h1a2.31,2.31,0,0,0,2.21-3L58,23.88A2.31,2.31,0,0,0,53.61,23.87Z"/><path class="cls-1" d="M76.61,6h0a3.58,3.58,0,0,1,3.27,2.14l3.91,8.88a3.57,3.57,0,0,0,6.85-1.44V8.54a2.63,2.63,0,0,1,.61-1.83A2.09,2.09,0,0,1,92.88,6a2.06,2.06,0,0,1,1.6.7,2.56,2.56,0,0,1,.64,1.8V37a3.58,3.58,0,0,1-3.58,3.58h0a3.58,3.58,0,0,1-3.27-2.14l-3.88-8.81a3.58,3.58,0,0,0-6.85,1.44v7a2.59,2.59,0,0,1-.63,1.81,2.21,2.21,0,0,1-3.23,0A2.6,2.6,0,0,1,73,38.11V9.62A3.58,3.58,0,0,1,76.61,6Z"/><path class="cls-1" d="M101.63,6H123a.36.36,0,0,1,.37.37v5.38a2.64,2.64,0,0,1-.62,1.82,2.09,2.09,0,0,1-1.62.69,2,2,0,0,1-1.61-.71,2.6,2.6,0,0,1-.63-1.8v-.9a.37.37,0,0,0-.37-.37h-3.58a.36.36,0,0,0-.37.37V38.11a2.59,2.59,0,0,1-.63,1.81,2.21,2.21,0,0,1-3.23,0,2.55,2.55,0,0,1-.62-1.79V10.89a.37.37,0,0,0-.38-.37h-3.58a.37.37,0,0,0-.37.37v.9a2.64,2.64,0,0,1-.62,1.82,2.09,2.09,0,0,1-1.62.69,2,2,0,0,1-1.61-.71,2.6,2.6,0,0,1-.63-1.8V6.41A.37.37,0,0,1,101.63,6Z"/><path class="cls-1" d="M127.06,11.31A5.28,5.28,0,0,1,132.34,6h14.31a2.62,2.62,0,0,1,1.81.62,2.09,2.09,0,0,1,.69,1.62,2.07,2.07,0,0,1-.7,1.6,2.56,2.56,0,0,1-1.8.64h-9.83a5.28,5.28,0,0,0-5.28,5.27h0a5.28,5.28,0,0,0,5.28,5.28h1.08a2.53,2.53,0,0,1,1.77.62,2.12,2.12,0,0,1,.68,1.62,2.08,2.08,0,0,1-.68,1.61,2.49,2.49,0,0,1-1.77.63h-1.08a5.28,5.28,0,0,0-5.28,5.28v0a5.29,5.29,0,0,0,5.28,5.28h9.83a2.57,2.57,0,0,1,1.81.62,2.09,2.09,0,0,1,.69,1.62,2,2,0,0,1-.7,1.61,2.6,2.6,0,0,1-1.8.63H132.34a5.28,5.28,0,0,1-5.28-5.28Z"/><path class="cls-1" d="M171.3,6a2.63,2.63,0,0,1,1.81.62,2.09,2.09,0,0,1,.69,1.62,2.08,2.08,0,0,1-.71,1.6,2.52,2.52,0,0,1-1.79.64h-5.94a.37.37,0,0,0-.37.37V35.76a.38.38,0,0,0,.37.37h5.94a2.59,2.59,0,0,1,1.81.62,2.09,2.09,0,0,1,.69,1.62,2,2,0,0,1-.71,1.61,2.56,2.56,0,0,1-1.79.63H154.21A2.57,2.57,0,0,1,152.4,40a2.22,2.22,0,0,1,0-3.23,2.59,2.59,0,0,1,1.8-.62h5.93a.37.37,0,0,0,.37-.37L159.23,21.6c-2.53-8.39,0-7.22.87-10.73.06-.22.08-.35,0-.35h-5.93a2.57,2.57,0,0,1-1.81-.63,2.06,2.06,0,0,1-.69-1.61,2.07,2.07,0,0,1,.7-1.62,2.64,2.64,0,0,1,1.8-.62Z"/><path class="cls-1" d="M184.42,8.54v9.12a.37.37,0,0,0,.61.28l13.09-11.2a2.84,2.84,0,0,1,.81-.55A2.45,2.45,0,0,1,200,6a2.21,2.21,0,0,1,1.29.53,2,2,0,0,1,.78,1.6,2.26,2.26,0,0,1-.25,1.05,2.68,2.68,0,0,1-.71.88L185.92,23a.37.37,0,0,0,0,.56l15.15,13a3.45,3.45,0,0,1,.7.93,2.22,2.22,0,0,1,.26,1,2.07,2.07,0,0,1-.78,1.61,2.14,2.14,0,0,1-1.29.52,2.45,2.45,0,0,1-1-.15,2.64,2.64,0,0,1-.81-.55L185,28.7a.37.37,0,0,0-.61.29v9.12a2.59,2.59,0,0,1-.63,1.81,2.21,2.21,0,0,1-3.23,0,2.6,2.6,0,0,1-.62-1.79V8.54a2.63,2.63,0,0,1,.61-1.83A2.09,2.09,0,0,1,182.18,6a2.06,2.06,0,0,1,1.6.7A2.56,2.56,0,0,1,184.42,8.54Z"/><path class="cls-1" d="M212.65,8.54V33.68a2.49,2.49,0,0,0,1,2,2.13,2.13,0,0,0,1.27.4h8.6a2.25,2.25,0,0,0,1.59-.68,2.09,2.09,0,0,0,.7-1.56V8.54a2.68,2.68,0,0,1,.61-1.83A2.1,2.1,0,0,1,228,6a2.06,2.06,0,0,1,1.6.7,2.56,2.56,0,0,1,.64,1.8V33.89a6.76,6.76,0,0,1-6.72,6.72H215a6.55,6.55,0,0,1-4.85-2,7,7,0,0,1-1.93-5V8.54a2.68,2.68,0,0,1,.61-1.83A2.09,2.09,0,0,1,210.41,6a2.06,2.06,0,0,1,1.6.7A2.56,2.56,0,0,1,212.65,8.54Z"/><path class="cls-2" d="M9.4.5V6.39h2.94V.5ZM15.29,2V6.39h2.94V2ZM1.48,7.86A1,1,0,0,0,.51,9l.06.51L3.14,34a5.4,5.4,0,0,0,5.37,4.83h13a4.45,4.45,0,0,0,4.41-4l.6-5.48a1,1,0,0,1,1-.87H29a5.42,5.42,0,0,0,5.4-5.4V20.62a5.42,5.42,0,0,0-5.4-5.4h0a1,1,0,0,1-1-1.08l.48-4.67L28.6,9a1,1,0,0,0-1-1.1Zm2.21,3H25.41L22.93,34.5a1.49,1.49,0,0,1-1.48,1.34H7.65a1.48,1.48,0,0,1-1.47-1.33Zm23.93,7.36H30a1.47,1.47,0,0,1,1.48,1.47v4.42A1.47,1.47,0,0,1,30,25.53H26.84Z"/></g></g></svg>