<svg xmlns="http://www.w3.org/2000/svg" viewBox="0 0 80.81 27.91"><defs><style>.cls-1,.cls-2{fill:#2978bd;}.cls-2{font-size:21.81px;stroke:#2978bd;stroke-miterlimit:10;font-family:Arial-BoldItalicMT, Arial;font-weight:700;font-style:italic;}</style></defs><g id="Camada_2" data-name="Camada 2"><g id="Camada_1-2" data-name="Camada 1"><path class="cls-1" d="M8.18,1.55a7.55,7.55,0,0,0-7.75,8h2c0-.21,0-.42,0-.64A5.59,5.59,0,0,1,8.18,3.55,6,6,0,0,1,12.1,5l.65.56a1,1,0,0,0,1.3,0L14.7,5a6,6,0,0,1,3.92-1.42A5.59,5.59,0,0,1,24.4,8.91c0,5.12-4.82,8.16-8.7,10.6-.65.4-1.24.77-1.75,1.13a1,1,0,0,1-1.1,0c-.51-.36-1.1-.73-1.75-1.13a37.91,37.91,0,0,1-5.18-3.7.94.94,0,0,0-.65-.26h0a1,1,0,0,0-.67,1.74A37.64,37.64,0,0,0,10,21.2a28.89,28.89,0,0,1,2.4,1.61l1,.74s.95-.74.95-.74c.6-.47,1.43-1,2.41-1.61,4.07-2.56,9.64-6.06,9.64-12.29a7.59,7.59,0,0,0-7.78-7.36A8,8,0,0,0,14,3a1,1,0,0,1-1.1,0A8.07,8.07,0,0,0,8.18,1.55ZM9.91,8.14a1,1,0,0,0-1.83,0l-1.45,3.6-.22-.22H1a1,1,0,0,0-1,1H0a1,1,0,0,0,1,1H5.17a1,1,0,0,1,.71.29l.42.42a1,1,0,0,0,1.62-.33l.22-.54a1,1,0,0,1,1.84,0L11.09,16a1,1,0,0,0,1.83,0L14.1,13l.28.56h1.4a1,1,0,0,1,.72.32,2,2,0,1,0-.23-2.32h-.65l-.73-1.46a1,1,0,0,0-1.81.08l-.22.54a1,1,0,0,1-1.84,0Z"/><text class="cls-2" transform="translate(29.97 19.2)">Kear</text></g></g></svg>