<svg xmlns="http://www.w3.org/2000/svg" width="67" height="57"><defs><style>.iconPlanP,.iconPlanPc{fill:none;stroke:#176fb7}.iconPlanP{stroke-width:1.5px}</style></defs><g transform="translate(-523 -869.403)"><circle cx="20" cy="20" r="20" transform="translate(534 885)" fill="#538dd1" opacity=".11"/><path class="iconPlanP" d="M577.904 886.535c0 8.366-7.133 20.5-15.9 20.5s-15.9-12.132-15.9-20.5 7.133-15.132 15.9-15.132 15.9 6.766 15.9 15.132z"/><path class="iconPlanPc" d="M555.403 874.103a20.751 20.751 0 0 0-3.566 11.8 35.737 35.737 0 0 0 4.866 16.932"/><path class="iconPlanPc" d="M553.77 873.57a19.333 19.333 0 0 0 8.233 1.667 19.333 19.333 0 0 0 8.233-1.667m-.767 30.498a13.621 13.621 0 0 0-7.466-2 13.621 13.621 0 0 0-7.466 2m7.466-28.832v26.832"/><path class="iconPlanP" d="M555.17 904.534l1.967 6.333m11.499-5.999l-1.867 6m1.001 3.066h-11.533a1.337 1.337 0 0 1-1.333-1.333v-.4a1.337 1.337 0 0 1 1.333-1.333h11.533a1.337 1.337 0 0 1 1.333 1.333v.4a1.337 1.337 0 0 1-1.333 1.333zm-8.3-7.233l.833 4.166m3.467-4.266l-.8 4.166m2.866 9.3h-7.966a1.494 1.494 0 0 1-1.5-1.5v-4.633h11.1v4.466a1.643 1.643 0 0 1-1.634 1.667z"/><path class="iconPlanPc" d="M568.802 874.17a20.767 20.767 0 0 1 3.533 11.733 35.425 35.425 0 0 1-4.966 17.067"/></g><path fill="none" d="M0 0h67v57H0z"/></svg>
