<svg xmlns="http://www.w3.org/2000/svg" viewBox="0 0 144.45 94.77"><defs><style>.cls-1{fill:#010101;}.cls-2{font-size:50.07px;font-family:Modern-Regular, "Modern No. 20";}.cls-2,.cls-3{fill:#1d1d1b;}.cls-3{font-size:69px;font-family:Parchment-Regular, Parchment;}</style></defs><g id="Camada_2" data-name="Camada 2"><g id="Camada_1-2" data-name="Camada 1"><path class="cls-1" d="M39.74,30.16H28.07l-7.42-7.38a13.71,13.71,0,0,0-9.64-4A11,11,0,0,0,0,29.71v5.81q.77,3.13,2,7c4,12.93,9.23,15.94,9.23,15.94l.31.12v.11l.22.3,5.22,7V75.3a5.89,5.89,0,0,0,5.41,6,5.74,5.74,0,0,0,6.09-5.74V65.6a8.73,8.73,0,0,0-1.7-5.18L20,51.24V38.36a0,0,0,0,1,.06,0l.76.77a8.46,8.46,0,0,0,6,2.55H39.53a5.83,5.83,0,0,0,5.85-5.41A5.7,5.7,0,0,0,39.74,30.16ZM11.53,0a8.53,8.53,0,1,0,8.53,8.53A8.53,8.53,0,0,0,11.53,0Z"/><text class="cls-2" transform="translate(28.63 77.37)">D</text><text class="cls-3" transform="translate(65.88 72.83)">esigno</text></g></g></svg>