<svg xmlns="http://www.w3.org/2000/svg" viewBox="0 0 168.99 42.91"><defs><style>.cls-1{fill:#e94c47;}.cls-2{fill:#fff;}</style></defs><g id="Camada_2" data-name="Camada 2"><g id="Camada_1-2" data-name="Camada 1"><path class="cls-1" d="M60.86,15.25H56.41a.89.89,0,0,0-.89.89v5.34a.89.89,0,0,0,.89.89H60a.89.89,0,0,1,.89.89V24.6a.89.89,0,0,1-.89.89H56.41a.89.89,0,0,0-.89.89v8.86a.89.89,0,0,1-.89.9H52.81a.89.89,0,0,1-.89-.9V13a.89.89,0,0,1,.89-.9h8a.89.89,0,0,1,.89.9v1.39A.89.89,0,0,1,60.86,15.25Z"/><path class="cls-1" d="M65.08,36.14H63.27a.89.89,0,0,1-.89-.9V13a.89.89,0,0,1,.89-.9h1.81a.9.9,0,0,1,.9.9V35.24A.9.9,0,0,1,65.08,36.14Z"/><path class="cls-1" d="M77,15.25H74.83a.89.89,0,0,0-.89.89v19.1a.89.89,0,0,1-.89.9h-1.8a.9.9,0,0,1-.9-.9V16.14a.89.89,0,0,0-.89-.89H67.28a.89.89,0,0,1-.89-.9V13a.89.89,0,0,1,.89-.9H77a.9.9,0,0,1,.9.9v1.39A.9.9,0,0,1,77,15.25Z"/><path class="cls-1" d="M89.56,36.14H87.92a.9.9,0,0,1-.84-.58L81.53,21a8.64,8.64,0,0,1,.23,1.74V35.24a.89.89,0,0,1-.89.9H79.15a.89.89,0,0,1-.89-.9V13a.89.89,0,0,1,.89-.9H80.8a.89.89,0,0,1,.83.57l5.55,14.28A9.44,9.44,0,0,1,87,25.17V13a.89.89,0,0,1,.89-.9h1.72a.9.9,0,0,1,.9.9V35.24A.9.9,0,0,1,89.56,36.14Z"/><path class="cls-1" d="M101,36.14h-8.2a.89.89,0,0,1-.89-.9V13a.89.89,0,0,1,.89-.9h8.1a.9.9,0,0,1,.9.9v1.39a.9.9,0,0,1-.9.9h-4.5a.89.89,0,0,0-.89.89v5.24a.89.89,0,0,0,.89.9H100a.89.89,0,0,1,.89.89v1.34a.89.89,0,0,1-.89.89H96.36a.89.89,0,0,0-.89.89v5.77a.89.89,0,0,0,.89.89H101a.89.89,0,0,1,.89.89v1.4A.89.89,0,0,1,101,36.14Z"/><path class="cls-1" d="M114.37,33.94a1.94,1.94,0,0,1-2.19,2.2h-7.24a1.93,1.93,0,0,1-2.17-2.2V29.09a.89.89,0,0,1,.89-.89h1.81a.89.89,0,0,1,.9.89v3.12a.89.89,0,0,0,.89.9h2.61a.9.9,0,0,0,.9-.9V28.77a.88.88,0,0,0-.28-.65l-6.94-6.57a2.55,2.55,0,0,1-.78-1.92V14.28a1.94,1.94,0,0,1,2.17-2.22h6.35a3.08,3.08,0,0,1,3.08,3.08v3.6a.89.89,0,0,1-.9.89h-1.81a.89.89,0,0,1-.89-.89V16a.9.9,0,0,0-.9-.9h-2.61a.89.89,0,0,0-.89.9v3.07a.88.88,0,0,0,.28.65l6.93,6.53a2.6,2.6,0,0,1,.79,2Z"/><path class="cls-1" d="M127.28,33.94a1.94,1.94,0,0,1-2.18,2.2h-7.25a1.93,1.93,0,0,1-2.16-2.2V29.09a.89.89,0,0,1,.89-.89h1.81a.89.89,0,0,1,.89.89v3.12a.9.9,0,0,0,.9.9h2.61a.89.89,0,0,0,.89-.9V28.77a.88.88,0,0,0-.28-.65l-6.93-6.57a2.55,2.55,0,0,1-.78-1.92V14.28a1.94,1.94,0,0,1,2.16-2.22h6.36a3.07,3.07,0,0,1,3.07,3.08v3.6a.89.89,0,0,1-.89.89h-1.81a.89.89,0,0,1-.9-.89V16a.89.89,0,0,0-.89-.9h-2.61a.9.9,0,0,0-.9.9v3.07a.92.92,0,0,0,.28.65l6.94,6.53a2.59,2.59,0,0,1,.78,2Z"/><path class="cls-1" d="M140.57,33a3.1,3.1,0,0,1-3.09,3.1H130.8a1.92,1.92,0,0,1-2.14-2.2V14.28a2,2,0,0,1,2.19-2.22h7.52a2,2,0,0,1,2.2,2.22v4.24a.89.89,0,0,1-.89.9h-1.83a.9.9,0,0,1-.9-.9V16.05a.89.89,0,0,0-.89-.9h-2.9a.9.9,0,0,0-.9.9v16.1a.89.89,0,0,0,.9.89h2.9a.89.89,0,0,0,.89-.89V27.2a.89.89,0,0,0-.89-.89h-.89a.89.89,0,0,1-.89-.9V24.14a.89.89,0,0,1,.89-.89h4.51a.89.89,0,0,1,.89.89Z"/><path class="cls-1" d="M154.07,12.2l-3.18,10s0,0,0,0c-.38,1-.9,2.61-1.54,4.89a.69.69,0,0,0,0,.25v7.82a.89.89,0,0,1-.89.9h-1.83a.89.89,0,0,1-.89-.9V27.39a1.36,1.36,0,0,0,0-.2,21.29,21.29,0,0,0-.69-2.44c-.54-1.52-.84-2.36-.88-2.49L140.93,12.2a.29.29,0,0,1,0-.14h3a.89.89,0,0,1,.86.66l1.83,6.66a.9.9,0,0,0,1.73,0l1.82-6.66a.9.9,0,0,1,.86-.66h3Z"/><path class="cls-1" d="M168.09,36.14h-1.67a.89.89,0,0,1-.89-.9v-11a22.35,22.35,0,0,1,.21-2.61L162.8,33.26a.89.89,0,0,1-.86.68h-.44a.9.9,0,0,1-.87-.68l-2.95-11.61a23.52,23.52,0,0,1,.22,2.61v11a.9.9,0,0,1-.9.9h-1.67a.89.89,0,0,1-.89-.9V13a.89.89,0,0,1,.89-.9h1.83a.9.9,0,0,1,.86.65l3.6,12.66a6.48,6.48,0,0,1,.09,1.09,10,10,0,0,1,.08-1l0-.14,3.58-12.59a.9.9,0,0,1,.86-.65h1.83a.9.9,0,0,1,.9.9V35.24A.9.9,0,0,1,168.09,36.14Z"/><path class="cls-2" d="M46.27,36c.72-1.52-3.79-.28-3.79-2,0-.26,0-.53,0-.79a12.14,12.14,0,0,0-2.91-6.94v.35A16.3,16.3,0,0,1,7,27.12,12,12,0,0,0,4.7,33.2c0,.26,0,.53,0,.79,0,2.12-5.29,1.19-4.21,3-1.93-2.21,2.84-1.88,2.84-4.68a7,7,0,0,1,0-.79,12.11,12.11,0,0,1,3.85-7.74,16.24,16.24,0,0,1,4.51-8.69,14.53,14.53,0,0,1,1.44-1.27,16.26,16.26,0,0,1,20.6.32,13.52,13.52,0,0,1,1.35,1.27,16.2,16.2,0,0,1,4.12,7.94,12.32,12.32,0,0,1,4.33,8.17c0,.26,0,.53,0,.79C43.57,34.68,47.68,34,46.27,36Z"/><path class="cls-2" d="M11.47,13.52c0-.17,0-.34,0-.51V8.73A8.73,8.73,0,0,1,20.18,0h6.53a8.73,8.73,0,0,1,8.72,8.73V13a9.08,9.08,0,0,1,0,.91,16.4,16.4,0,0,0-1.64-1.59v-1.5c0-4.82-3.35-8.73-7.49-8.73H20.63c-4.13,0-7.49,3.91-7.49,8.73V12A15,15,0,0,0,11.47,13.52Z"/></g></g></svg>