<svg xmlns="http://www.w3.org/2000/svg" width="67" height="57"><defs><style>.b{fill:transparent;stroke:#bbbb69;stroke-width:1.5px}</style></defs><g transform="translate(-923 -869)"><circle cx="20" cy="20" r="20" transform="translate(927 885)" fill="#bbbb69" opacity=".11"/><path class="b" d="M958.909 871c-2.021 0-4.267 2.15-4.267 8.053v29.1c0 2.952 2.855 7.379 4.075 7.379 1.636 0 4.075-4.042 4.46-7.379v-29.1c-.386-4.781-2.215-8.053-4.268-8.053z"/><path class="b" d="M954.642 895.64l-19.8 7.828c-1.572.61-2.855-1.219-1.6-2.246l21.4-17.228zm8.534 0l19.8 7.828c1.572.61 2.855-1.219 1.6-2.246l-21.368-17.228v11.646zm-8.31 14.052l-5.39 4.973a.831.831 0 0 0 .834 1.38l7.09-1.444m5.455-4.749l5.23 4.812a.831.831 0 0 1-.834 1.38l-7.09-1.444"/><path d="M956.47 878.318a2.853 2.853 0 0 1 4.877 0" stroke-linecap="round" stroke="#bbbb69" fill="transparent"/><path d="M942.634 893.435v-.8a.781.781 0 0 0-.77-.77h-.9a.781.781 0 0 0-.77.77v2.759zm6.481-5.262v-.8a.781.781 0 0 0-.77-.77h-.9a.781.781 0 0 0-.77.77v2.759zm25.683 5.262v-.8a.781.781 0 0 1 .77-.77h.9a.781.781 0 0 1 .77.77v2.759zm-6.481-5.262v-.8a.781.781 0 0 1 .77-.77h.9a.781.781 0 0 1 .77.77v2.759z" stroke-linecap="round" stroke-width="1.5" stroke="#bbbb69" fill="transparent"/><path d="M958.973 917.616h-.257a1.137 1.137 0 0 1-1.123-1.123v-7.411a1.137 1.137 0 0 1 1.123-1.123h.257a1.137 1.137 0 0 1 1.123 1.123v7.411a1.137 1.137 0 0 1-1.123 1.123z" stroke-linejoin="round" fill="#ecf2fa" stroke="#bbbb69"/><path d="M956.887 883.865v18.576m3.914-18.576v18.576" stroke-linejoin="round" fill="#fff" stroke="#bbbb69"/></g><path fill="none" d="M0 0h67v57H0z"/></svg>